<?xml version="1.0" encoding="UTF-8"?>
<svg width="35px" height="33px" viewBox="0 0 35 33" version="1.1" xmlns="http://www.w3.org/2000/svg" xmlns:xlink="http://www.w3.org/1999/xlink">
    <!-- Generator: Sketch 43.2 (39069) - http://www.bohemiancoding.com/sketch -->
    <title>Fill 1</title>
    <desc>Created with Sketch.</desc>
    <defs></defs>
    <g id="Page-1" stroke="none" stroke-width="1" fill="none" fill-rule="evenodd">
        <g transform="translate(-80.000000, -1.000000)" id="Group-3" fill="#FEFEFE">
            <g transform="translate(80.000000, 0.081900)">
                <path d="M34.7051,8.7219 C34.7051,7.4379 34.4361,6.9879 33.0821,6.9879 L9.7551,6.9879 L9.0611,2.6519 C8.9661,1.3869 8.3251,0.9179 6.9621,0.9179 L1.7571,0.9179 C0.4721,0.9179 0.0221,1.3429 0.0221,2.6519 L0.0221,3.5189 C0.0221,4.8639 0.4721,5.2539 1.7571,5.2539 L4.9841,5.2539 L7.8291,21.7279 C8.1321,22.6299 8.9661,23.4189 10.4311,23.4619 L29.5161,23.4619 C31.0351,23.4619 31.7461,23.1509 32.1191,21.7279 L34.7051,8.7219 Z M28.6141,19.1269 L11.4641,19.1269 L10.1891,11.3229 L30.0891,11.3229 L28.6141,19.1269 Z M11.3001,29.5319 C11.3001,31.4479 12.8521,32.9999 14.7701,32.9999 C16.6871,32.9999 18.2401,31.4479 18.2401,29.5319 C18.2401,27.6159 16.6871,26.0639 14.7701,26.0639 C12.8521,26.0639 11.3001,27.6159 11.3001,29.5319 L11.3001,29.5319 Z M22.5771,29.5319 C22.5771,31.4479 24.1301,32.9999 26.0471,32.9999 C27.9641,32.9999 29.5171,31.4479 29.5171,29.5319 C29.5171,27.6159 27.9641,26.0639 26.0471,26.0639 C24.1301,26.0639 22.5771,27.6159 22.5771,29.5319 L22.5771,29.5319 Z" id="Fill-1"></path>
            </g>
        </g>
    </g>
</svg>