<?xml version="1.0" encoding="UTF-8"?>
<svg width="385px" height="232px" viewBox="0 0 385 232" version="1.1" xmlns="http://www.w3.org/2000/svg" xmlns:xlink="http://www.w3.org/1999/xlink">
    <!-- Generator: Sketch 43.2 (39069) - http://www.bohemiancoding.com/sketch -->
    <title>Page 1</title>
    <desc>Created with Sketch.</desc>
    <defs></defs>
    <g id="Page-1" stroke="none" stroke-width="1" fill="none" fill-rule="evenodd">
        <g transform="translate(0.000000, -1.000000)">
            <g id="Group-3" transform="translate(0.000000, 0.430000)" fill="#404041">
                <path d="M359.8311,123.8477 L357.9051,122.6817 C355.2081,121.0437 352.4591,119.5077 349.8121,118.0667 C357.6211,120.2877 363.1661,122.1217 365.1951,122.5697 C370.4011,123.7257 386.5311,116.9207 383.9741,109.6687 C383.9101,108.2917 383.2911,107.0547 382.1571,106.2037 C380.0231,104.6027 364.2951,98.9437 348.7561,94.4787 C352.6671,93.3737 356.3461,88.0677 357.9131,78.3027 C357.9181,78.2757 357.9031,78.2447 357.9071,78.2147 C358.4071,74.2947 356.4691,68.1847 352.8561,57.3487 C351.6321,53.6807 350.2461,49.5237 348.8861,45.1327 C346.9081,38.7477 344.1561,30.1937 341.6151,22.7107 C348.1001,21.6357 353.5011,20.8357 356.2981,20.6897 C361.2181,20.4357 365.6571,17.3737 367.6751,13.6207 C368.3151,12.7427 368.6411,11.7457 368.6891,10.8167 C368.9021,6.7107 364.1901,1.2957 359.8431,0.6517 C359.4701,0.5977 359.0521,0.5707 358.5651,0.5707 C356.1591,0.5707 351.4621,1.2657 344.9601,2.2287 C340.4831,2.8927 335.4301,3.6427 330.1081,4.3137 C329.3331,4.1947 328.5131,4.1337 327.7041,4.1337 C326.4511,4.1337 324.3441,4.2867 322.6171,5.1747 C316.3661,5.8127 311.1101,6.1237 306.5751,6.1237 C304.1231,6.1237 301.8821,6.0297 299.9171,5.8427 C299.5921,5.8127 299.2851,5.7987 298.9931,5.7987 C296.6921,5.7987 295.2521,6.6597 294.3691,7.5347 C291.2911,9.2027 289.0581,14.8347 288.9081,20.0697 C283.9671,19.1237 278.8001,18.5747 274.3341,18.5747 C267.7451,18.5747 263.2641,19.6867 260.6381,21.9747 C259.7311,22.7647 258.8831,23.5757 258.0631,24.3927 C257.8911,24.4977 257.6971,24.5757 257.5481,24.7047 C249.6451,31.5937 245.3171,38.8767 243.5521,45.9967 C242.9681,44.7837 242.0671,43.5657 240.8511,42.3527 C232.6261,34.1507 209.8231,25.7897 195.6701,25.7897 C190.6471,25.7897 186.8951,26.8647 184.5151,28.9867 C179.4511,33.5027 175.8471,38.4977 173.7371,43.7427 C169.9801,42.3317 163.8651,40.2637 154.7851,37.3277 C143.9751,33.8387 130.6841,30.3087 123.7021,29.5287 C123.9991,28.8307 124.1711,28.1047 124.2091,27.3867 C124.4451,22.8697 120.0131,17.4627 115.7421,17.0557 C115.5381,17.0387 115.3051,17.0247 115.0481,17.0247 C113.2311,17.0247 110.3991,17.6077 105.1331,18.7237 C101.0721,19.5847 96.1201,20.6327 90.7681,21.5137 C89.9041,20.9677 88.8871,20.6697 87.7971,20.6697 C86.1521,20.6697 84.4321,21.3307 82.6691,22.6397 C80.7651,22.8467 79.2061,22.9417 77.7901,22.9417 C76.1581,22.9417 74.8501,22.8157 73.1941,22.6597 C71.5921,22.5107 69.7771,22.3377 67.2741,22.2467 C67.1921,22.2427 67.1121,22.2397 67.0301,22.2397 C61.6141,22.2397 56.1561,28.8717 54.9901,32.4857 C54.6221,33.6287 54.6021,34.5677 54.7421,35.3607 C41.6331,33.1807 27.8611,31.7837 19.2891,31.7837 C15.8771,31.7837 13.3011,31.9877 11.4131,32.4107 C1.8971,33.6727 -2.3509,49.2957 1.3011,55.8807 C3.5061,59.8577 36.5131,74.4947 52.8591,85.1237 C42.0191,85.0357 28.0581,83.0157 23.4391,81.3337 C22.7061,81.0687 21.9631,80.9337 21.2291,80.9337 L21.2271,80.9337 C18.9351,80.9337 16.9211,82.2557 15.8401,84.4767 C15.7381,84.6837 15.6731,84.9347 15.5871,85.1617 C12.1091,91.0647 12.5241,102.8837 15.7461,106.5147 C16.6601,107.5457 36.1521,110.3807 52.3461,107.9697 C50.1611,113.3507 53.3731,126.1537 54.2361,128.0657 C54.8421,129.4087 57.0021,130.1237 60.2101,130.3987 C56.8971,130.6157 59.8841,144.9807 60.4621,145.6457 C61.8581,147.2527 64.7611,148.5917 70.2001,148.1917 C70.9361,149.4767 71.6021,150.5887 72.1441,151.3927 C76.9961,158.5707 94.2641,183.4027 99.7241,190.5327 C102.6601,194.3647 116.7891,199.7587 122.0331,188.0207 C122.2141,187.7017 122.3401,187.3867 122.4151,187.1157 C122.9891,185.0067 122.3061,182.0497 118.1961,175.3057 C124.8861,180.8087 134.3041,187.4617 142.0351,188.8037 C136.6651,190.5127 131.3401,192.3437 126.0701,194.3337 C116.5121,197.3717 117.8331,213.9827 122.6961,212.2737 C132.0551,208.9847 141.2691,206.1837 150.3151,203.8007 C145.5311,207.5737 148.6761,217.3047 150.9571,216.7757 C241.6171,195.7007 307.0421,221.0787 321.0511,231.7657 C322.8521,233.1427 331.8511,228.2087 332.3821,223.3027 C333.1111,220.9567 333.1291,217.9697 332.4991,216.1417 C330.2961,209.7577 305.0451,199.0507 270.2131,193.8597 C308.5591,197.6397 335.7591,207.3737 345.6941,212.9647 C347.2231,213.8227 356.5471,210.0217 356.3191,203.9467 C356.3191,203.9227 356.3091,203.8957 356.3091,203.8717 C356.5021,201.0917 355.4481,197.6737 354.4771,195.9817 C351.3271,190.4717 327.3961,181.7517 294.2031,176.8487 C303.3921,174.0107 311.0811,168.9317 316.0831,163.0527 C316.2041,162.9377 316.3111,162.8087 316.4321,162.6897 C316.7221,164.9547 316.9081,167.7117 320.0231,173.3027 C321.4991,175.9507 375.8721,171.1557 382.2641,154.0337 C382.4151,153.6307 382.5341,153.2337 382.6261,152.8437 C382.8691,152.3247 383.0831,151.7927 383.2671,151.2437 C386.9311,140.2207 372.5331,131.5237 359.8311,123.8477" id="Fill-1"></path>
            </g>
            <path d="M329.4609,54.3577 C325.6689,60.5797 317.1709,68.1067 310.7989,71.1407 C301.6439,75.5007 287.2479,77.3117 276.9649,73.1617 C271.6829,71.0327 267.6149,66.5807 264.8559,61.4877 C283.8339,70.2967 319.9249,52.0897 320.3569,42.2057 C320.5589,37.5877 309.0339,29.6877 295.1719,25.5687 C284.6959,22.4557 267.8749,20.8047 263.0939,24.9687 C235.8069,48.7427 257.6069,78.9767 277.5719,83.1437 C290.4689,85.8387 303.2179,84.6657 313.2279,79.8207 C323.0879,75.0467 330.6929,67.3297 333.4059,59.7077 C334.3629,57.0227 330.4159,52.7917 329.4609,54.3577 M264.8269,36.7067 C271.9589,34.9707 299.7239,40.1787 301.8469,45.3867 C302.8069,47.7427 289.1909,51.7747 278.9379,51.0277 C269.0229,50.3097 265.8899,46.6917 264.6759,47.9907 C263.9189,48.8037 262.4429,50.0517 261.2339,51.5297 C259.7969,44.4267 260.8979,38.0867 264.8269,36.7067" id="Fill-4" fill="#FEFEFE"></path>
            <path d="M115.3809,20.9403 C112.8119,20.6963 102.0639,23.7343 89.4809,25.6663 C88.4869,23.7133 86.2239,24.6263 84.1859,26.3923 C84.0649,26.4063 83.9459,26.4233 83.8229,26.4363 C75.7189,27.3823 74.3909,26.4163 67.1309,26.1453 C63.1859,25.9993 56.3929,34.4313 58.7879,35.9843 C61.8859,37.9983 71.1569,37.2763 81.4389,35.8183 C87.6429,53.7373 96.0059,81.4413 97.8949,90.0363 C98.9379,94.7973 106.3309,97.4383 107.1879,96.0213 C109.2789,92.5763 106.7329,84.8833 101.3439,67.9093 C98.4469,58.7853 94.0129,43.6093 91.5739,34.2383 C101.7259,32.5533 111.2599,30.7793 115.3809,30.7793 C125.0909,30.7793 118.8569,21.2723 115.3809,20.9403" id="Fill-6" fill="#FEFEFE"></path>
            <path d="M359.2852,4.513 C356.6962,4.13 344.0742,6.503 330.0122,8.26 C327.7582,7.799 324.9112,8.056 323.8852,8.965 C315.2162,9.88 306.4682,10.386 299.5562,9.728 C291.8992,8.999 299.6512,22.72 302.5632,22.514 C306.4182,22.242 315.9912,20.588 326.4832,18.733 C332.7892,37.713 341.3612,65.733 343.0772,73.545 C344.1202,78.305 353.0322,80.946 353.8892,79.529 C355.9802,76.081 350.6632,63.553 345.3932,46.546 C342.5842,37.476 338.5702,25.175 335.6842,17.109 C347.0882,15.098 357.9582,13.25 362.3662,13.02 C368.4722,12.705 362.7452,5.025 359.2852,4.513" id="Fill-8" fill="#FEFEFE"></path>
            <path d="M288.8638,97.0312 C284.8868,95.3902 275.7638,91.8402 269.7698,95.2412 C266.9108,96.8622 264.1798,98.3262 263.0188,101.9642 C261.8738,105.5482 261.1008,138.3922 262.1208,151.8562 C262.3658,155.1112 262.5478,157.0712 262.6968,158.2852 C262.2778,158.0512 261.8548,157.8102 261.4118,157.5562 C257.6638,155.4162 257.1018,163.9882 260.2938,165.6022 C266.8678,168.9312 271.8968,170.3152 276.0038,170.9492 C302.7788,175.0922 320.5698,159.6552 322.6528,144.1092 C325.0748,126.0412 306.4018,104.2662 288.8638,97.0312 M311.0088,145.2212 C309.6528,156.5392 296.6658,165.8902 277.0988,163.0452 C272.8818,162.4322 270.0528,161.6792 267.6198,160.7092 C269.7558,159.7222 271.9928,158.1392 272.3658,157.3732 C273.0668,155.9222 273.6298,138.8162 273.6298,138.8162 L272.2258,103.7682 C273.4878,101.2452 279.7408,103.0292 284.2018,105.7792 C295.1298,112.5192 313.2398,126.6202 311.0088,145.2212" id="Fill-10" fill="#FEFEFE"></path>
            <path d="M125.2402,108.3048 C120.6652,108.2128 82.5962,110.5768 62.5172,106.0808 C53.7952,104.1278 59.1592,117.8558 60.3042,120.3958 C60.9102,121.7378 63.0712,122.4538 66.2782,122.7278 C67.8462,125.2368 69.6362,128.4478 71.4002,131.6798 C68.0882,131.8928 65.5842,132.0998 64.4932,132.4148 C62.1282,133.0998 64.7472,138.3218 65.3252,138.9858 C66.7202,140.5928 70.8292,140.9218 76.2682,140.5218 C77.0052,141.8068 77.6702,142.9188 78.2122,143.7228 C83.0642,150.9008 100.3322,175.7328 105.7922,182.8628 C108.8012,186.7898 118.4572,188.2508 118.8922,186.6678 C119.9412,182.8128 107.0882,165.3508 96.9982,151.8868 C94.4632,148.5068 91.4582,143.8408 88.4722,138.9118 C94.7222,137.8398 101.3512,136.4328 107.2002,135.1548 C110.8452,134.3548 115.1342,133.9478 113.6562,130.6118 C112.1592,127.2448 109.5382,126.6138 103.1042,128.1358 C97.1582,129.5468 90.1622,130.3298 83.7272,130.8488 C81.9992,127.8348 80.3812,124.9288 78.9852,122.3658 C94.7372,120.9208 116.1952,116.7848 126.3472,116.2048 C136.0392,115.6518 128.7322,108.3758 125.2402,108.3048" id="Fill-12" fill="#FEFEFE"></path>
            <path d="M54.2358,64.631 C37.6858,55.368 20.3398,50.597 21.8568,47.705 C21.9618,47.505 22.5468,46.932 23.0708,46.766 C25.5738,45.969 35.8998,45.98 41.7948,46.692 C56.0758,48.411 68.9218,53.978 71.9248,54.625 C74.7198,55.226 81.5348,48.726 80.0288,46.403 C76.8428,41.484 24.2048,33.553 12.2408,36.222 C8.1838,37.127 6.3628,42.996 7.0658,47.343 C7.9758,52.984 62.2898,74.613 67.2848,84.015 C71.7528,92.43 31.6758,88.48 22.1388,85.008 C17.8218,83.435 17.0258,92.922 21.5098,97.977 C22.9818,99.639 72.7468,106.003 79.1188,87.487 C81.3108,81.119 68.4418,72.579 54.2358,64.631" id="Fill-14" fill="#FEFEFE"></path>
            <path d="M355.9497,126.0408 C341.6917,117.3878 326.3067,111.6648 326.5337,105.5348 C326.5747,104.4498 334.8417,104.9378 345.5057,107.6128 C358.7167,110.9288 367.7017,115.8318 370.5437,116.4588 C375.8287,117.6318 382.1057,111.0108 379.9067,109.3628 C376.7557,106.9998 330.5437,91.3788 319.1417,92.6408 C315.3917,93.0538 312.6267,99.3438 313.3617,103.3068 C315.3637,114.1268 365.4657,138.0268 369.1687,146.3128 C372.7887,154.3998 336.4837,157.7598 327.9907,153.6568 C324.1467,151.8018 322.4447,160.5258 326.0917,165.6328 C327.2877,167.3068 374.0317,167.9448 379.7957,150.6228 C382.7637,141.6948 368.4667,133.6358 355.9497,126.0408" id="Fill-16" fill="#FEFEFE"></path>
            <path d="M148.9443,121.4771 C141.9263,120.0701 135.1503,120.1721 130.2893,121.5961 C127.7543,122.3421 121.0193,133.0191 123.8653,132.5641 C124.2423,132.5031 124.7383,132.4521 125.2803,132.4051 C122.8503,136.7241 120.7843,142.5491 121.0473,149.0731 C121.7193,165.6761 135.5023,180.0291 153.5383,181.0761 C181.1513,182.6771 187.8593,169.6811 187.9373,153.0631 C188.0153,136.4501 167.0953,125.1121 148.9443,121.4771 M154.7513,173.8171 C141.6513,172.9661 133.7603,162.0151 131.5303,150.1541 C129.8963,141.4641 133.5963,135.4361 137.9103,132.2761 C143.0113,132.4491 148.1053,132.8591 150.8543,133.5441 C163.8993,136.7991 178.5603,143.7801 178.5033,155.8571 C178.4463,167.9311 173.2033,175.0171 154.7513,173.8171" id="Fill-18" fill="#FEFEFE"></path>
            <path d="M216.5386,100.6286 C211.4926,99.7976 199.7636,99.9676 194.9996,101.9166 C191.5046,103.3476 183.2616,113.8756 186.2966,113.3096 C186.9546,113.1836 188.2046,113.0516 189.8166,112.9226 C186.9496,117.5816 184.9866,123.1686 185.1516,128.7026 C185.6356,144.9166 200.6036,160.9536 219.1326,161.9776 C247.4966,163.5476 258.4156,148.1306 258.2666,131.9096 C258.0746,111.0106 233.2266,103.3816 216.5386,100.6286 M220.2346,153.3046 C206.7686,152.5586 198.4956,141.2916 195.9186,129.7636 C194.1266,121.7486 196.9806,115.5976 201.4306,112.4006 C206.4626,112.3196 211.5356,112.4316 214.6556,112.9226 C227.4076,114.9336 246.6256,123.1116 246.5686,134.8966 C246.5136,146.6856 240.8496,154.4436 220.2346,153.3046" id="Fill-20" fill="#FEFEFE"></path>
            <path d="M127.4092,197.9918 C124.4042,199.1278 127.5942,204.9938 128.7642,204.6038 C229.2032,171.2198 331.5782,193.9368 351.7622,205.2948 C353.2912,206.1528 352.8312,200.7788 351.2822,198.0768 C346.4692,189.6608 240.3582,155.4198 127.4092,197.9918" id="Fill-22" fill="#FEFEFE"></path>
            <path d="M155.8926,204.7018 C153.5846,205.3288 156.1216,209.2858 157.0256,209.1058 C242.9846,192.0378 313.1106,213.4088 327.1196,224.0958 C328.9526,225.4958 329.7886,219.8268 329.0396,217.6538 C326.5926,210.5678 250.4966,178.9338 155.8926,204.7018" id="Fill-24" fill="#FEFEFE"></path>
            <path d="M247.2285,62.8951 C244.0335,67.5231 240.5695,71.8361 234.1795,75.4771 C225.3965,80.4821 213.3595,82.6621 203.0775,78.5151 C197.8805,76.4201 193.6285,72.0601 190.5615,67.0481 C207.4245,73.7991 240.2315,59.8031 240.7035,49.8721 C241.1725,39.9681 196.2625,23.6931 187.0025,31.9531 C160.5975,55.5071 184.1485,83.5101 201.8625,87.4831 C222.4965,92.1151 247.8435,81.8111 251.7805,66.8011 C252.3865,64.4891 248.2735,61.3801 247.2285,62.8951 M188.8135,41.9141 C195.9455,40.1781 222.2655,48.5161 224.0155,52.3301 C225.0765,54.6461 213.6335,57.1241 203.3795,56.3821 C193.4655,55.6601 191.2425,52.9101 189.7245,53.4901 C189.1205,53.7201 187.4135,54.9611 186.1045,56.6731 C184.2305,49.5901 184.9075,43.2871 188.8135,41.9141" id="Fill-26" fill="#FEFEFE"></path>
            <path d="M187.1465,91.8267 C186.6485,89.2907 157.5145,70.8357 145.7285,64.7737 C141.4485,62.5727 136.9175,60.6167 133.0295,59.0467 C134.8165,59.2707 136.7095,59.5007 138.7585,59.7147 C151.1985,61.0167 167.0785,62.2647 171.3685,58.8397 C174.7165,56.1677 177.2965,49.5157 175.6165,48.7157 C172.6325,47.2947 163.4725,44.2297 153.6165,41.0467 C139.7435,36.5637 124.7105,32.9427 120.6585,33.2887 C118.1955,33.4987 116.2005,34.6077 114.6235,35.9737 C112.2785,37.6317 109.7765,40.2087 109.4635,43.7997 C109.3525,45.0707 109.7515,47.5867 110.4505,50.8587 C108.7455,51.4447 106.2905,53.2017 106.7455,54.5037 C107.2205,55.8627 109.6385,57.2697 112.1505,58.0707 C113.5625,63.7327 115.3185,70.2797 116.9015,76.4907 C119.6555,87.3007 121.5565,97.1497 122.3635,98.6247 C123.5565,100.8047 130.2485,95.1567 130.7055,93.5627 C131.1255,92.1017 125.1545,66.0387 124.1715,61.7627 C128.0615,63.1557 132.4575,65.0377 137.2305,67.8117 C147.9465,74.0397 177.3885,95.3327 180.3185,99.0587 C181.6845,100.7947 187.6015,94.1387 187.1465,91.8267 M138.5965,48.4237 C138.5965,48.4237 148.6885,51.4757 157.6045,53.9947 C153.8945,54.6627 149.5915,55.1167 144.6665,55.0797 C134.0005,55.0017 124.1185,53.4927 121.4615,52.0457 L119.7675,46.1657 C119.6735,42.4597 138.5965,48.4237 138.5965,48.4237" id="Fill-28" fill="#FEFEFE"></path>
        </g>
    </g>
</svg>