<?xml version="1.0" encoding="UTF-8"?>
<svg width="32px" height="32px" viewBox="0 0 32 32" version="1.1" xmlns="http://www.w3.org/2000/svg" xmlns:xlink="http://www.w3.org/1999/xlink">
    <!-- Generator: Sketch 43.2 (39069) - http://www.bohemiancoding.com/sketch -->
    <title>Fill 1</title>
    <desc>Created with Sketch.</desc>
    <defs></defs>
    <g id="Page-1" stroke="none" stroke-width="1" fill="none" fill-rule="evenodd">
        <g id="Artboard" transform="translate(-430.000000, -406.000000)" fill="#FEFEFE">
            <g id="Page-1" transform="translate(430.000000, 406.000000)">
                <path d="M28.9106,13.2508 L18.0686,13.2508 L18.0686,2.4088 C18.0686,1.0788 16.9906,-0.0002 15.6596,-0.0002 C14.3296,-0.0002 13.2506,1.0788 13.2506,2.4088 L13.2506,13.2508 L2.4096,13.2508 C1.0786,13.2508 -0.0004,14.3298 -0.0004,15.6598 C-0.0004,16.9908 1.0786,18.0688 2.4096,18.0688 L13.2506,18.0688 L13.2506,28.9108 C13.2506,30.2408 14.3296,31.3198 15.6596,31.3198 C16.9906,31.3198 18.0686,30.2408 18.0686,28.9108 L18.0686,18.0688 L28.9106,18.0688 C30.2406,18.0688 31.3196,16.9908 31.3196,15.6598 C31.3196,14.3298 30.2406,13.2508 28.9106,13.2508" id="Fill-1"></path>
            </g>
        </g>
    </g>
</svg>