<?xml version="1.0" encoding="UTF-8"?>
<svg width="26px" height="26px" viewBox="0 0 26 26" version="1.1" xmlns="http://www.w3.org/2000/svg" xmlns:xlink="http://www.w3.org/1999/xlink">
    <!-- Generator: Sketch 43.2 (39069) - http://www.bohemiancoding.com/sketch -->
    <title>Fill 4</title>
    <desc>Created with Sketch.</desc>
    <defs></defs>
    <g id="Page-1" stroke="none" stroke-width="1" fill="none" fill-rule="evenodd">
        <g transform="translate(0.000000, -4.000000)" id="Group-6" fill="#FEFEFE">
            <g transform="translate(0.000000, 4.081900)">
                <path d="M24.3909,21.5265 L17.7549,15.0415 C18.8469,13.5165 19.4889,11.6655 19.4889,9.6735 C19.4889,4.4665 15.1169,0.2305 9.7439,0.2305 C4.3709,0.2305 -0.0001,4.4665 -0.0001,9.6735 C-0.0001,14.8805 4.3709,19.1165 9.7439,19.1165 C11.2239,19.1165 12.6279,18.7935 13.8859,18.2185 L20.8179,24.9905 C21.2829,25.4395 21.9039,25.6875 22.5649,25.6875 C23.2419,25.6875 23.8809,25.4295 24.3639,24.9625 C25.3489,24.0075 25.3609,22.4655 24.3909,21.5265 M3.8969,9.6735 C3.8969,6.5495 6.5199,4.0075 9.7439,4.0075 C12.9679,4.0075 15.5909,6.5495 15.5909,9.6735 C15.5909,12.7975 12.9679,15.3395 9.7439,15.3395 C6.5199,15.3395 3.8969,12.7975 3.8969,9.6735" id="Fill-4"></path>
            </g>
        </g>
    </g>
</svg>