<?xml version="1.0" encoding="UTF-8"?>
<svg width="31px" height="26px" viewBox="0 0 31 26" version="1.1" xmlns="http://www.w3.org/2000/svg" xmlns:xlink="http://www.w3.org/1999/xlink">
    <!-- Generator: Sketch 43.2 (39069) - http://www.bohemiancoding.com/sketch -->
    <title>Fill 8</title>
    <desc>Created with Sketch.</desc>
    <defs></defs>
    <g id="Page-1" stroke="none" stroke-width="1" fill="none" fill-rule="evenodd">
        <g id="Artboard" transform="translate(-421.000000, -543.000000)" fill="#FEFEFE">
            <g id="Page-1" transform="translate(318.000000, 524.000000)">
                <path d="M133.8224,22.666 C132.6984,23.164 131.4904,23.501 130.2234,23.653 C131.5174,22.877 132.5104,21.649 132.9784,20.186 C131.7674,20.904 130.4264,21.425 128.9994,21.706 C127.8564,20.489 126.2274,19.728 124.4254,19.728 C120.9644,19.728 118.1584,22.533 118.1584,25.994 C118.1584,26.485 118.2144,26.963 118.3204,27.422 C113.1124,27.161 108.4954,24.666 105.4044,20.875 C104.8654,21.8 104.5564,22.877 104.5564,24.025 C104.5564,26.199 105.6624,28.117 107.3444,29.241 C106.3164,29.208 105.3504,28.926 104.5054,28.457 L104.5054,28.536 C104.5054,31.572 106.6654,34.105 109.5314,34.681 C109.0064,34.824 108.4524,34.9 107.8814,34.9 C107.4774,34.9 107.0844,34.861 106.7024,34.788 C107.4994,37.277 109.8134,39.089 112.5554,39.14 C110.4114,40.821 107.7094,41.822 104.7734,41.822 C104.2674,41.822 103.7684,41.793 103.2784,41.735 C106.0514,43.513 109.3454,44.55 112.8844,44.55 C124.4104,44.55 130.7134,35.001 130.7134,26.721 C130.7134,26.449 130.7074,26.179 130.6954,25.91 C131.9204,25.026 132.9824,23.923 133.8224,22.666" id="Fill-8"></path>
            </g>
        </g>
    </g>
</svg>