<?xml version="1.0" encoding="UTF-8"?>
<svg width="206px" height="103px" viewBox="0 0 206 103" version="1.1" xmlns="http://www.w3.org/2000/svg" xmlns:xlink="http://www.w3.org/1999/xlink">
    <!-- Generator: Sketch 43.2 (39069) - http://www.bohemiancoding.com/sketch -->
    <title>Combined Shape</title>
    <desc>Created with Sketch.</desc>
    <defs></defs>
    <g id="Page-1" stroke="none" stroke-width="1" fill="none" fill-rule="evenodd">
        <g id="Combined-Shape" fill="#EE145C">
            <path d="M185.3891,42.7819 L205.3551,51.3409 L205.3551,86.9879 L188.2391,86.9879 C188.2391,86.4779 188.1971,85.9749 188.1611,85.4709 C187.9561,82.5349 187.1621,79.7619 185.8901,77.2729 C182.3511,70.3449 175.1621,65.5979 166.8511,65.5979 C155.0351,65.5979 145.4591,75.1759 145.4591,86.9879 L78.7931,86.9879 C78.7931,75.1759 69.2151,65.5979 57.4011,65.5979 C45.5851,65.5979 36.0091,75.1759 36.0091,86.9879 L0.0001,86.9879 L0.0001,74.1529 L5.7021,74.1529 L5.7021,-0.0001 L173.9821,-0.0001 L173.9821,8.5569 L185.3891,42.7819 Z M57.4012,71.305 C66.0602,71.305 73.0852,78.332 73.0852,86.991 C73.0852,95.657 66.0622,102.682 57.4012,102.682 C48.7372,102.682 41.7142,95.657 41.7142,86.991 C41.7142,78.332 48.7372,71.305 57.4012,71.305 Z M166.8511,71.305 C175.5141,71.305 182.5411,78.332 182.5411,86.991 C182.5411,95.657 175.5141,102.682 166.8511,102.682 C158.1881,102.682 151.1611,95.657 151.1611,86.991 C151.1611,78.332 158.1881,71.305 166.8511,71.305 Z"></path>
        </g>
    </g>
</svg>